<svg xmlns="http://www.w3.org/2000/svg" viewBox="0 0 400 300" width="0" height="0" class="illustration styles_illustrationTablet__1DWOa"><g id="_82_recycling_outline" data-name="#82_recycling_outline"><path d="M217,175.38a5.6,5.6,0,0,0-1.47-3.68V150.79c1.77-2.92,2.15-11.41,0-16.1s-5.33-7-6.34-8.45-.89-4.1-.89-4.1H191.72s.13,2.71-.89,4.1-4.18,3.76-6.34,8.45-1.77,13.18,0,16.1V171.7a5.6,5.6,0,0,0-1.47,3.68c0,1.53,0,10,0,15.38a4.52,4.52,0,0,0,4.52,4.52h24.94a4.52,4.52,0,0,0,4.52-4.52C217,185.38,217,176.91,217,175.38Z" fill="#fff"></path><path d="M212.47,196.28H187.53a5.53,5.53,0,0,1-5.52-5.52c0-6.21,0-13.93,0-15.4a6.79,6.79,0,0,1,1.47-4V151.05c-1.83-3.41-2.13-11.93.1-16.78a25.62,25.62,0,0,1,5.28-7.34,13.27,13.27,0,0,0,1.15-1.28,6.69,6.69,0,0,0,.7-3.46,1,1,0,0,1,1-1h16.56a1,1,0,0,1,1,1,6.69,6.69,0,0,0,.7,3.46,13.27,13.27,0,0,0,1.15,1.28,25.62,25.62,0,0,1,5.28,7.34c2.23,4.85,1.93,13.37.1,16.78v20.27a6.79,6.79,0,0,1,1.47,4c0,1.47,0,9.19,0,15.4A5.53,5.53,0,0,1,212.47,196.28Zm-19.76-73.14a7.32,7.32,0,0,1-1.07,3.69,16.45,16.45,0,0,1-1.33,1.49,23.67,23.67,0,0,0-4.91,6.79c-2,4.31-1.7,12.45-.05,15.16a1,1,0,0,1,.14.52V171.7a1,1,0,0,1-.3.72,4.67,4.67,0,0,0-1.17,3c0,1.13,0,6.59,0,15.36a3.53,3.53,0,0,0,3.52,3.52h24.94a3.53,3.53,0,0,0,3.52-3.52c0-8.77,0-14.23,0-15.36h0a4.67,4.67,0,0,0-1.18-3,1,1,0,0,1-.29-.71V150.79a1,1,0,0,1,.14-.52c1.65-2.71,1.93-10.85-.05-15.16a23.67,23.67,0,0,0-4.91-6.79,16.45,16.45,0,0,1-1.33-1.49,7.32,7.32,0,0,1-1.07-3.69Z" fill="#093f68"></path><path d="M209.52,121.4l-.27-.48v-5.37c0-1.14-1.06-1.49-1.82-1.49H192.57c-.76,0-1.82.35-1.82,1.49v5.37l-.27.48a.5.5,0,0,0,.44.74h18.16A.5.5,0,0,0,209.52,121.4Z" fill="#7DD889"></path><path d="M209.08,123.14H190.92a1.46,1.46,0,0,1-1.29-.74,1.48,1.48,0,0,1,0-1.48l.14-.26v-5.11a2.57,2.57,0,0,1,2.82-2.49h14.86a2.57,2.57,0,0,1,2.82,2.49v5.11l.14.26a1.48,1.48,0,0,1,0,1.48A1.46,1.46,0,0,1,209.08,123.14Zm-.44-1.26h0Zm-16.92-.74h16.56a.83.83,0,0,1,0-.22v-5.37c0-.45-.63-.49-.82-.49H192.57c-.19,0-.82,0-.82.49v5.37A.83.83,0,0,1,191.72,121.14Z" fill="#093f68"></path><polygon points="199.98 150.79 195.27 150.79 184.5 150.79 184.5 171.45 195.27 171.45 195.27 171.45 215.5 171.45 215.5 150.79 199.98 150.79" fill="#7DD889"></polygon><path d="M215.51,172.45h-31a1,1,0,0,1-1-1V150.79a1,1,0,0,1,1-1h31a1,1,0,0,1,1,1v20.66A1,1,0,0,1,215.51,172.45Zm-30-2h29V151.79h-29Z" fill="#093f68"></path><path d="M213.21,147.21h-.08a1,1,0,0,1-.92-1.07c.72-9.7-4.47-15-4.53-15.07a1,1,0,0,1,0-1.41,1,1,0,0,1,1.42,0c.24.24,5.89,6,5.1,16.62A1,1,0,0,1,213.21,147.21Z" fill="#dfeaef"></path><path d="M213.28,190.18a1,1,0,0,1-1-1V176a1,1,0,0,1,2,0v13.18A1,1,0,0,1,213.28,190.18Z" fill="#dfeaef"></path><path d="M199.45,236.06c-32.25,0-67.66-22-72.95-64.11l-.55-4.38H112L132.85,136l20,31.32H138.16l1.71,6.31c8.73,32.18,29.55,48.73,61.87,49.19V236C201,236,200.21,236.06,199.45,236.06Z" fill="#7DD889"></path><path d="M199.45,237.06c-32.69,0-68.58-22.32-73.94-65l-.44-3.5H112a1,1,0,0,1-.83-1.55L132,135.42a1,1,0,0,1,.83-.45h0a1,1,0,0,1,.83.46l20,31.32a1,1,0,0,1-.84,1.54h-13.4l1.37,5.05c8.6,31.69,29.09,48,60.91,48.45a1,1,0,0,1,1,1V236a1,1,0,0,1-1,1c-.77,0-1.55,0-2.32,0Zm-85.56-70.49H126a1,1,0,0,1,1,.87l.55,4.38c5.22,41.51,40.15,63.24,72,63.24h0l1.29,0V223.77c-32.26-.79-53.06-17.58-61.83-49.91l-1.71-6.31a1,1,0,0,1,.17-.87,1,1,0,0,1,.79-.39H151l-18.2-28.48Z" fill="#093f68"></path><path d="M237.39,189.85,245,200.17l4.08-3.58c15.95-14,27.49-48,4.38-79.12l10.57-7.67c23.46,30.4,20.56,72-7.51,98.51l-3.22,3,8.36,11.32-37.81,1.83Z" fill="#7DD889"></path><path d="M223.88,225.5a1,1,0,0,1-.93-1.37l13.5-34.65a1,1,0,0,1,1.74-.23l7,9.45,3.26-2.86c8.52-7.45,14.69-19.61,16.51-32.52,1.55-11,.68-27.83-12.28-45.26a1,1,0,0,1-.18-.75,1,1,0,0,1,.4-.65L263.47,109a1,1,0,0,1,1.38.2c24,31.06,20.77,73.05-7.61,99.85l-2.58,2.43,7.84,10.61a1,1,0,0,1-.76,1.59l-37.81,1.82Zm13.78-33.6-12.29,31.52,34.41-1.66L252.52,212a1,1,0,0,1,.12-1.32l3.22-3c27.39-25.85,30.68-66.25,8-96.4l-9,6.5c12.78,17.68,13.63,34.69,12.05,45.92-1.88,13.37-8.3,26-17.17,33.75l-4.08,3.57a1,1,0,0,1-.77.24,1,1,0,0,1-.69-.4Z" fill="#093f68"></path><path d="M133.63,116.54c12.2-27.38,38-44.83,67-44.83a75.14,75.14,0,0,1,22.91,3.62l4.22,1.34,5.82-12.73,19.9,32.21-36.83,5,5.61-12.4-5.7-1.52A63,63,0,0,0,200.42,85a59,59,0,0,0-28.53,7.53c-11.44,6.26-20,16-26.2,29.66Z" fill="#7DD889"></path><path d="M145.69,123.22a1,1,0,0,1-.42-.09l-12.06-5.68a1,1,0,0,1-.49-1.31c12.48-28,38.49-45.43,67.87-45.43a76.43,76.43,0,0,1,23.21,3.66l3.38,1.08,5.45-11.92a1,1,0,0,1,.85-.58,1,1,0,0,1,.91.47l19.9,32.2a1,1,0,0,1,.05.95,1,1,0,0,1-.77.57l-36.82,5a1,1,0,0,1-.94-.39,1,1,0,0,1-.11-1l5.13-11.33-4.57-1.21A61.76,61.76,0,0,0,200.42,86a57.9,57.9,0,0,0-28,7.41c-11.28,6.17-19.7,15.72-25.77,29.19a.94.94,0,0,1-.56.53A1,1,0,0,1,145.69,123.22ZM135,116.06l10.25,4.82c6.22-13.4,14.8-22.95,26.21-29.2a60,60,0,0,1,29-7.65,63.53,63.53,0,0,1,16.35,2.21l5.71,1.51a1,1,0,0,1,.65.54,1,1,0,0,1,0,.84l-4.87,10.76,33.51-4.53-18.11-29.3-5,11a1,1,0,0,1-1.21.53l-4.22-1.34a74.45,74.45,0,0,0-22.61-3.57C172.32,72.71,147.25,89.29,135,116.06Z" fill="#093f68"></path></g></svg>